<mxfile host="65bd71144e">
    <diagram id="RJOPugZwDBAZk_VlPFvy" name="Page-1">
        <mxGraphModel dx="653" dy="319" grid="1" gridSize="10" guides="1" tooltips="1" connect="1" arrows="1" fold="1" page="1" pageScale="1" pageWidth="1000" pageHeight="700" math="0" shadow="0">
            <root>
                <mxCell id="0"/>
                <mxCell id="1" parent="0"/>
                <mxCell id="52" value="log" style="shape=table;startSize=30;container=1;collapsible=0;childLayout=tableLayout;fixedRows=1;rowLines=0;fontStyle=1;align=center;pointerEvents=1;flipH=1;" parent="1" vertex="1">
                    <mxGeometry x="370" y="240" width="320" height="150" as="geometry"/>
                </mxCell>
                <mxCell id="53" value="" style="shape=partialRectangle;html=1;whiteSpace=wrap;collapsible=0;dropTarget=0;pointerEvents=1;fillColor=none;top=0;left=0;bottom=1;right=0;points=[[0,0.5],[1,0.5]];portConstraint=eastwest;" parent="52" vertex="1">
                    <mxGeometry y="30" width="320" height="30" as="geometry"/>
                </mxCell>
                <mxCell id="54" value="&lt;b&gt;PK&lt;/b&gt;" style="shape=partialRectangle;html=1;whiteSpace=wrap;connectable=0;fillColor=none;top=0;left=0;bottom=0;right=0;overflow=hidden;pointerEvents=1;" parent="53" vertex="1">
                    <mxGeometry width="40" height="30" as="geometry">
                        <mxRectangle width="40" height="30" as="alternateBounds"/>
                    </mxGeometry>
                </mxCell>
                <mxCell id="55" value="&lt;b&gt;id&lt;/b&gt;" style="shape=partialRectangle;html=1;whiteSpace=wrap;connectable=0;fillColor=none;top=0;left=0;bottom=0;right=0;align=left;spacingLeft=6;overflow=hidden;pointerEvents=1;" parent="53" vertex="1">
                    <mxGeometry x="40" width="90" height="30" as="geometry">
                        <mxRectangle width="90" height="30" as="alternateBounds"/>
                    </mxGeometry>
                </mxCell>
                <mxCell id="56" value="&lt;b&gt;uuid&lt;/b&gt;" style="shape=partialRectangle;html=1;whiteSpace=wrap;connectable=0;fillColor=none;top=0;left=0;bottom=0;right=0;align=left;spacingLeft=6;overflow=hidden;pointerEvents=1;" parent="53" vertex="1">
                    <mxGeometry x="130" width="190" height="30" as="geometry">
                        <mxRectangle width="190" height="30" as="alternateBounds"/>
                    </mxGeometry>
                </mxCell>
                <mxCell id="250" style="shape=partialRectangle;html=1;whiteSpace=wrap;collapsible=0;dropTarget=0;pointerEvents=1;fillColor=none;top=0;left=0;bottom=0;right=0;points=[[0,0.5],[1,0.5]];portConstraint=eastwest;" vertex="1" parent="52">
                    <mxGeometry y="60" width="320" height="30" as="geometry"/>
                </mxCell>
                <mxCell id="251" style="shape=partialRectangle;html=1;whiteSpace=wrap;connectable=0;fillColor=none;top=0;left=0;bottom=0;right=0;overflow=hidden;pointerEvents=1;" vertex="1" parent="250">
                    <mxGeometry width="40" height="30" as="geometry">
                        <mxRectangle width="40" height="30" as="alternateBounds"/>
                    </mxGeometry>
                </mxCell>
                <mxCell id="252" value="content" style="shape=partialRectangle;html=1;whiteSpace=wrap;connectable=0;fillColor=none;top=0;left=0;bottom=0;right=0;align=left;spacingLeft=6;overflow=hidden;pointerEvents=1;" vertex="1" parent="250">
                    <mxGeometry x="40" width="90" height="30" as="geometry">
                        <mxRectangle width="90" height="30" as="alternateBounds"/>
                    </mxGeometry>
                </mxCell>
                <mxCell id="253" value="json (LogAddress | LogAverage)" style="shape=partialRectangle;html=1;whiteSpace=wrap;connectable=0;fillColor=none;top=0;left=0;bottom=0;right=0;align=left;spacingLeft=6;overflow=hidden;pointerEvents=1;" vertex="1" parent="250">
                    <mxGeometry x="130" width="190" height="30" as="geometry">
                        <mxRectangle width="190" height="30" as="alternateBounds"/>
                    </mxGeometry>
                </mxCell>
                <mxCell id="81" style="shape=partialRectangle;html=1;whiteSpace=wrap;collapsible=0;dropTarget=0;pointerEvents=1;fillColor=none;top=0;left=0;bottom=0;right=0;points=[[0,0.5],[1,0.5]];portConstraint=eastwest;" parent="52" vertex="1">
                    <mxGeometry y="90" width="320" height="30" as="geometry"/>
                </mxCell>
                <mxCell id="82" value="" style="shape=partialRectangle;html=1;whiteSpace=wrap;connectable=0;fillColor=none;top=0;left=0;bottom=0;right=0;overflow=hidden;pointerEvents=1;" parent="81" vertex="1">
                    <mxGeometry width="40" height="30" as="geometry">
                        <mxRectangle width="40" height="30" as="alternateBounds"/>
                    </mxGeometry>
                </mxCell>
                <mxCell id="83" value="type" style="shape=partialRectangle;html=1;whiteSpace=wrap;connectable=0;fillColor=none;top=0;left=0;bottom=0;right=0;align=left;spacingLeft=6;overflow=hidden;pointerEvents=1;" parent="81" vertex="1">
                    <mxGeometry x="40" width="90" height="30" as="geometry">
                        <mxRectangle width="90" height="30" as="alternateBounds"/>
                    </mxGeometry>
                </mxCell>
                <mxCell id="84" value="enum (LogEnum)" style="shape=partialRectangle;html=1;whiteSpace=wrap;connectable=0;fillColor=none;top=0;left=0;bottom=0;right=0;align=left;spacingLeft=6;overflow=hidden;pointerEvents=1;" parent="81" vertex="1">
                    <mxGeometry x="130" width="190" height="30" as="geometry">
                        <mxRectangle width="190" height="30" as="alternateBounds"/>
                    </mxGeometry>
                </mxCell>
                <mxCell id="73" style="shape=partialRectangle;html=1;whiteSpace=wrap;collapsible=0;dropTarget=0;pointerEvents=1;fillColor=none;top=0;left=0;bottom=0;right=0;points=[[0,0.5],[1,0.5]];portConstraint=eastwest;" parent="52" vertex="1">
                    <mxGeometry y="120" width="320" height="30" as="geometry"/>
                </mxCell>
                <mxCell id="74" style="shape=partialRectangle;html=1;whiteSpace=wrap;connectable=0;fillColor=none;top=0;left=0;bottom=0;right=0;overflow=hidden;pointerEvents=1;" parent="73" vertex="1">
                    <mxGeometry width="40" height="30" as="geometry">
                        <mxRectangle width="40" height="30" as="alternateBounds"/>
                    </mxGeometry>
                </mxCell>
                <mxCell id="75" value="created_at" style="shape=partialRectangle;html=1;whiteSpace=wrap;connectable=0;fillColor=none;top=0;left=0;bottom=0;right=0;align=left;spacingLeft=6;overflow=hidden;pointerEvents=1;" parent="73" vertex="1">
                    <mxGeometry x="40" width="90" height="30" as="geometry">
                        <mxRectangle width="90" height="30" as="alternateBounds"/>
                    </mxGeometry>
                </mxCell>
                <mxCell id="76" value="timestamp" style="shape=partialRectangle;html=1;whiteSpace=wrap;connectable=0;fillColor=none;top=0;left=0;bottom=0;right=0;align=left;spacingLeft=6;overflow=hidden;pointerEvents=1;" parent="73" vertex="1">
                    <mxGeometry x="130" width="190" height="30" as="geometry">
                        <mxRectangle width="190" height="30" as="alternateBounds"/>
                    </mxGeometry>
                </mxCell>
                <mxCell id="189" style="edgeStyle=orthogonalEdgeStyle;html=1;exitX=0;exitY=0.5;exitDx=0;exitDy=0;entryX=0;entryY=0.5;entryDx=0;entryDy=0;fontSize=10;startArrow=ERzeroToMany;startFill=0;endArrow=ERmandOne;endFill=0;" parent="1" edge="1">
                    <mxGeometry relative="1" as="geometry">
                        <Array as="points">
                            <mxPoint x="840" y="905"/>
                            <mxPoint x="840" y="1080"/>
                            <mxPoint x="440" y="1080"/>
                            <mxPoint x="440" y="835"/>
                        </Array>
                        <mxPoint x="480" y="835" as="targetPoint"/>
                    </mxGeometry>
                </mxCell>
                <mxCell id="248" value="&lt;p style=&quot;margin: 4px 0px 0px ; text-align: center ; font-size: 11px&quot;&gt;&lt;font style=&quot;font-size: 11px&quot;&gt;&amp;lt;enum&amp;gt;&lt;br&gt;&lt;b&gt;LogEnum&lt;/b&gt;&lt;/font&gt;&lt;/p&gt;&lt;hr style=&quot;font-size: 11px&quot;&gt;&lt;p style=&quot;margin: 4px 0px 0px 10px ; text-align: left ; font-size: 11px&quot;&gt;&lt;font style=&quot;font-size: 11px&quot;&gt;address = 'address'&lt;/font&gt;&lt;/p&gt;&lt;p style=&quot;margin: 4px 0px 0px 10px ; text-align: left ; font-size: 11px&quot;&gt;&lt;font style=&quot;font-size: 11px&quot;&gt;average = 'average'&lt;/font&gt;&lt;/p&gt;" style="shape=rect;html=1;overflow=fill;whiteSpace=wrap;" vertex="1" parent="1">
                    <mxGeometry x="300" y="80" width="120" height="80" as="geometry"/>
                </mxCell>
                <mxCell id="254" value="&lt;p style=&quot;margin: 4px 0px 0px ; text-align: center ; font-size: 11px&quot;&gt;&lt;font style=&quot;font-size: 11px&quot;&gt;&amp;lt;interface&amp;gt;&lt;br&gt;&lt;b&gt;LogAverage&lt;/b&gt;&lt;/font&gt;&lt;/p&gt;&lt;hr style=&quot;font-size: 11px&quot;&gt;&lt;p style=&quot;margin: 4px 0px 0px 10px ; text-align: left ; font-size: 11px&quot;&gt;firstValue: number&lt;/p&gt;&lt;p style=&quot;margin: 4px 0px 0px 10px ; text-align: left ; font-size: 11px&quot;&gt;secondValue: number&lt;br&gt;&lt;/p&gt;&lt;p style=&quot;margin: 4px 0px 0px 10px ; text-align: left ; font-size: 11px&quot;&gt;result: number&lt;/p&gt;" style="shape=rect;html=1;overflow=fill;whiteSpace=wrap;" vertex="1" parent="1">
                    <mxGeometry x="480" y="80" width="120" height="100" as="geometry"/>
                </mxCell>
                <mxCell id="255" value="&lt;p style=&quot;margin: 4px 0px 0px ; text-align: center ; font-size: 11px&quot;&gt;&lt;font style=&quot;font-size: 11px&quot;&gt;&amp;lt;interface&amp;gt;&lt;br&gt;&lt;b&gt;LogAddress&lt;/b&gt;&lt;/font&gt;&lt;/p&gt;&lt;hr style=&quot;font-size: 11px&quot;&gt;&lt;p style=&quot;margin: 4px 0px 0px 10px ; text-align: left ; font-size: 11px&quot;&gt;address: string&lt;/p&gt;&lt;p style=&quot;margin: 4px 0px 0px 10px ; text-align: left ; font-size: 11px&quot;&gt;zipcode: number&lt;br&gt;&lt;/p&gt;&lt;p style=&quot;margin: 4px 0px 0px 10px ; text-align: left ; font-size: 11px&quot;&gt;city: string&lt;/p&gt;&lt;p style=&quot;margin: 4px 0px 0px 10px ; text-align: left ; font-size: 11px&quot;&gt;state: string&lt;/p&gt;&lt;p style=&quot;margin: 4px 0px 0px 10px ; text-align: left ; font-size: 11px&quot;&gt;district: string&lt;/p&gt;" style="shape=rect;html=1;overflow=fill;whiteSpace=wrap;" vertex="1" parent="1">
                    <mxGeometry x="660" y="80" width="120" height="130" as="geometry"/>
                </mxCell>
            </root>
        </mxGraphModel>
    </diagram>
</mxfile>
